<?xml version="1.0" encoding="utf-8"?>
<!-- Generator: Adobe Illustrator 26.5.0, SVG Export Plug-In . SVG Version: 6.00 Build 0)  -->
<svg version="1.1" id="Layer_1" xmlns="http://www.w3.org/2000/svg" x="0px" y="0px"
	 viewBox="0 0 841.8895874 595.2802734" style="enable-background:new 0 0 841.8895874 595.2802734;"
	 xml:space="preserve">
<style type="text/css">
	.st0{fill-rule:evenodd;clip-rule:evenodd;}
	.st1{fill-rule:evenodd;clip-rule:evenodd;fill:#FF0000;}
</style>
<path class="st0" d="M417.1654968,332.2587891c25.6821899-5.468689,46.7153931-20.8301086,59.9595032-41.2427063
	c9.5937805-14.7832031,15.0995789-32.2176819,15.3300781-50.464798
	c-29.0546875-4.3192902-55.6542969,1.4277039-79.8559875,17.0059052
	c-2.5477905,9.8045959-6.8564148,19.0223999-12.6430054,27.2127991
	c-11.674408,16.5259094-29.3530884,28.8677063-50.6900024,33.4125977c-1.2875977,0.2734985-2.5756836,0.515686-3.8641968,0.7286072
	c8.2495117,5.3807983,17.3291016,9.4881897,26.9160156,12.1131897
	C386.4779968,334.9013977,401.7724915,335.5380859,417.1654968,332.2587891L417.1654968,332.2587891z M322.8096008,169.4526978
	c0,0,28.3690796,37.0258026,76.5839844,43.730896c-3.6035767-11.8934937-9.9584961-22.805603-18.8442993-30.9956055
	c28.9048157-37.4491882,75.9663086-30.6390991,103.6889954-0.8832855c0.4844055-0.3828125,0.9844055-0.7519073,1.4960938-1.1045074
	c2.8691101-1.9721069,6.1307983-3.4189148,9.6777039-4.1743011c3.546936-0.7554016,7.117218-0.7637024,10.5391235-0.1309052
	c3.5721741,0.6607056,6.9159851,2.0015106,9.8436584,3.901413c2.9278564,1.8993988,5.515625,4.407196,7.5723267,7.4003906
	c1.9725952,2.8672028,3.4199219,6.1304016,4.1758423,9.6777039c0.7538452,3.5458984,0.7635498,7.1166992,0.1307373,10.539093
	c-0.6542969,3.5361023-2,6.8755035-3.9159546,9.8330078l0.015564,0.0097961
	c-1.9003906,2.9282074-4.4082031,5.5146027-7.4003906,7.5737c-2.8671265,1.9721985-6.1328125,3.4194031-9.6795959,4.1748047
	l-0.5762024,0.1156921c2.281189,20.6352997-2.7149048,44.1875153-18.585907,68.6485138
	c-14.9747009,23.0756836-38.75,40.4408875-67.7817993,46.6244812c-17.3519897,3.6953125-34.6395874,2.9648132-50.6860046-1.4277954
	c-26.1962891-7.1717834-39.1371765-19.2772827-57.3036804-37.4121094
	c20.550293,5.9981079,43.5282898,1.1758118,61.0527039-11.1039734
	c-14.6708984-1.9404297-33.4395142-6.4624329-40.4897156-30.2153015c0,0,6.9077148,1.0731812,16.7700195-0.3228149
	c-15.9043274-6.3627014-30.2686157-14.3896027-32.2734985-43.016098c0,0,3.6958008,2.2554016,18.2148743,5.2416992
	C311.1059875,203.1669922,316.1040039,184.944397,322.8096008,169.4526978L322.8096008,169.4526978z M493.5585938,190.7686005
	L493.5,190.8061981l-0.0117188,0.0067902l-0.0683899,0.0454102l-0.0625,0.0410004l-0.0057983,0.003891l-0.0684204,0.0455017
	l-0.0663757,0.0454102l-0.0020142,0.0004883l-0.0664062,0.0458984l-0.0116882,0.0078125L493.125,191.0567017l-0.0137024,0.0083008
	l-0.0117188,0.0082855l-0.0116882,0.0083008l-0.0116882,0.0083008l0,0l-0.0117188,0.0083008l-0.0118103,0.0083008
	l-0.0116882,0.0083008l-0.0116882,0.0077972l-0.0117188,0.0083008l-0.0116882,0.0083008l-0.0118103,0.0083008l-0.0116882,0.0083008
	l-0.0117188,0.0083008l-0.0116577,0.0093079l-0.0117188,0.0077972l-0.0097961,0.0067902l-0.0020142,0.0020142l-0.0116882,0.0077972
	l-0.0117188,0.0083008l-0.0116882,0.0092926l-0.0116882,0.0083008l-0.0116882,0.0077972l-0.0118408,0.0083008l-0.0116882,0.0088043
	l-0.0116882,0.0088043l-0.0117188,0.0083008l-0.0116882,0.009201l-0.0118103,0.0077972l-0.0057983,0.0054016l-0.0058899,0.0028992
	l-0.0117188,0.0092773l-0.0116882,0.008316l-0.0116882,0.0088043L492.75,191.3256989l-0.0117188,0.0092926l-0.0116882,0.0083008
	l-0.0118103,0.0088043l-0.0116882,0.0083008l-0.0117188,0.0092926l-0.0116882,0.0078125l-0.0116882,0.0091858l-0.0020142,0.003006
	l-0.0097046,0.0052948l-0.0097961,0.0088043l-0.0137024,0.0083008l-0.0097961,0.0093079l-0.0116882,0.0087891l-0.0117188,0.0083008
	l-0.0116882,0.0093079l-0.0116882,0.0087891l-0.0117188,0.0083008l-0.0118103,0.009201l-0.0096741,0.0093079l-0.0117188,0.0077972
	v0.0014954l-0.0117798,0.0077972l-0.0057983,0.0049133c-2.1660156,1.5351868-3.7403259,3.8109894-4.6016235,6.3837891
	c-0.8262024,2.3374023-1.0370789,4.9243011-0.4823914,7.527298c0.1034851,0.4854126,0.2304993,0.9600067,0.3807983,1.4219055
	c0.8243103,2.6068878,2.4433899,5.0355988,4.968811,6.8856964c0.0762024,0.055191,0.1522827,0.1094055,0.226593,0.1631012
	l0.1034851,0.0722961c0.1191101,0.0825043,0.2402039,0.1636047,0.3612976,0.2422028l0.1816101,0.1157074l0.0743103,0.0468903
	l0.1698914,0.1029968l0.0137024,0.0088043l0.023407,0.0137024l0.1698914,0.0996094l0.0487976,0.027298l0.1777954,0.1000977
	l0.0273132,0.0155945l0.031311,0.0162048l0.1717834,0.0917969l0.0372009,0.0200043
	c2.1932983,1.1483917,4.7049866,1.7211914,7.2929077,1.5619965l0.0253906-0.0014954l0.1503906-0.0106964
	c1.8164062-0.1309204,3.6152039-0.6187134,5.2871094-1.4663086l0.0683899-0.035202l0.1367188-0.0708008l0.0684204-0.0361023
	l0.1307678-0.0708008l0.0039062-0.0019989l0.0664062-0.0370941l0.0664062-0.0376129l0.0097961-0.0052795l0.0625-0.0357208
	l0.1602173-0.0922852l0.0760803-0.0458984l0.1542969-0.0937042l0.0664062-0.0406036l0.125-0.0791016l0.0567017-0.0355988
	l0.0018921-0.0019989l0.0116882-0.0068054l0.0684204-0.0448914l0.0625-0.0415039l0.0058899-0.003891l0.0682983-0.0454102
	l0.0683899-0.0453949v-0.0005035l0.0682983-0.0458984l0.0684204-0.0478973l0.0019836-0.0014038l0.0664062-0.0468903
	l0.0703125-0.0488129l0.0018921-0.0025024l0.0644836-0.0463867l0.0682983-0.0498047l0.0059204-0.0039062l0.0625-0.0469055
	l0.0664062-0.0506897l0.0038757-0.003891l0.0645142-0.0464172l0.0664062-0.0527954l0.0057983-0.0023956l0.0605774-0.0488129
	l0.0664062-0.0522919l0.0057983-0.0043945c1.1895142-0.9453125,2.2090149-2.0713043,3.0292969-3.3348999
	c0.2051392-0.3164062,0.3964844-0.6407013,0.5762329-0.9721985c0.6386719-1.155304,1.1112671-2.391098,1.3516235-3.6436005
	l0.0018311-0.0023956v-0.0019989v-0.0048065l0.0352173-0.160202L514.703064,205.3125l0.0176392-0.0830078l0.0175781-0.0825043
	v-0.0009918l0.015625-0.0845032l0.0136719-0.0805054l0.0018921-0.0009918l0.0118408-0.0796051l0.0272827-0.1621094
	l0.0136719-0.0809937l0.0018921-0.0126953l0.0098267-0.069397c0.1835938-1.2167969,0.2050781-2.4730988,0.0488281-3.7445984
	c-0.1855469-1.6273956-0.6621094-3.2022095-1.4570312-4.7256012L513.375,196.0097961l-0.0039062-0.0093079
	c-0.1777344-0.3363953-0.3690796-0.6635895-0.5723267-0.980896l-0.0371094-0.0585938l-0.0077515-0.0108032l-0.0449219-0.0688019
	l-0.0899048-0.1371918l-0.0449219-0.0669098v-0.0010071l-0.046875-0.0673828l-0.0136108-0.0195007
	c-1.851593-2.7080078-4.5195923-4.5498047-7.4648743-5.4229126l-0.1504211-0.0443878l-0.0565796-0.0166016
	c-0.1094055-0.0308075-0.2207031-0.0606079-0.3301086-0.0888977l-0.0078125-0.0014038l-0.0820007-0.0205078l-0.0762024-0.0195923
	l-0.0058899-0.0005035l-0.0820007-0.0204926l-0.0762024-0.0171051l-0.0057983-0.0019073l-0.0820007-0.0186005l-0.0762024-0.0170898
	l-0.0058899-0.0019073l-0.0820007-0.0175934l-0.0780945-0.016098l-0.0039062-0.0010071l-0.0839844-0.0166016l-0.0801086-0.0155945
	h-0.0020142l-0.0820007-0.0155945l-0.0800781-0.0147247h-0.0019226l-0.0800781-0.0140839l-0.0801086-0.0137024l-0.0078125-0.0014954
	l-0.0741882-0.0117188l-0.0801086-0.0131836l-0.0137024-0.0018921l-0.0682983-0.0102997
	c-1.1366882-0.171402-2.3085938-0.2012024-3.4942017-0.0766144l-0.0039062,0.000412
	c-0.0878906,0.0092926-0.1776733,0.0195923-0.2655945,0.0302887l-0.1719055,0.0225067l-0.007782,0.0010071
	c-1.4375,0.1942902-2.8594055,0.6151886-4.2090149,1.2723999l-0.070282,0.0341949
	c-0.0722046,0.0350952-0.1426086,0.0713043-0.2148132,0.1078949l-0.1269836,0.0664062l-0.0682983,0.0361023l-0.0606079,0.0327911
	c-0.0820007,0.0438995-0.1621094,0.0888062-0.2441101,0.1347046l-0.0155945,0.0097961l-0.0137024,0.0077972
	c-0.0899048,0.0503082-0.1777039,0.1021118-0.2655945,0.1543121l-0.0234985,0.0150909l-0.0097046,0.0048981
	C493.75,190.6469879,493.6542969,190.7070923,493.5585938,190.7686005L493.5585938,190.7686005z"/>
<path class="st1" d="M512.6190796,194.7442017c-4.1756897-6.2901001-12.7167969-8.0293121-19.0604858-3.9756012
	l-1.0273132,0.7240906c-6.8399048,4.8281097-7.8125,17.0322113,0.9393921,22.7089996
	c4.648407,3.0171051,10.6953125,3.0102081,15.3535156-0.1201019c2.8106079-1.8871918,5.1894836-5.1835938,5.8456726-8.6078949
	C515.406311,201.635788,514.8222656,198.0619965,512.6190796,194.7442017L512.6190796,194.7442017z"/>
<path class="st0" d="M390.859375,393.1279907h6.4873047v-3.5176086c0-6.7753906,3.230011-14.2616882,13.5869141-14.2616882
	v17.7792969h12.8066101v11.4784851h-12.8066101v15.2812195c0,5.5195923-0.1781921,9.6366882,6.3496094,9.6366882
	c1.7973938,0,3.519989-0.2304077,5.2987976-0.4159851l0.9882812-0.1035156v10.4003906l-0.6112671,0.2051086
	c-3.7852173,1.2578125-6.8521118,1.7304077-10.8989258,1.7304077c-9.164093,0-14.7134094-6.2246094-14.7134094-15.3027039
	v-21.4316101h-18.5108032v15.2812195c0,5.5195923-0.1786804,9.6366882,6.3496094,9.6366882
	c1.7969055,0,3.5195923-0.2304077,5.2984009-0.4159851l0.9897156-0.1035156v10.4003906l-0.6132202,0.2051086
	c-3.7841797,1.2578125-6.8511047,1.7304077-10.8979797,1.7304077c-9.1641235,0-14.7138977-6.2246094-14.7138977-15.3027039
	v-21.4316101h-6.4868164v-11.4784851h6.4868164v-3.3984985c0-8.3612976,6.0849915-14.3807983,13.5873718-14.3807983v17.7792969
	H390.859375L390.859375,393.1279907z M272.9940796,404.4931946h-2.5003967v0.1132812h-10.0455017v15.2812195
	c0,5.5195923-0.1781921,9.6366882,6.3487244,9.6366882c1.7973022,0,3.519989-0.2304077,5.2997742-0.4159851l0.9892273-0.1035156
	v10.4003906l-0.6128235,0.2051086c-3.7845764,1.2578125-6.8515015,1.7304077-10.8983765,1.7304077
	c-9.1641083,0-14.7134094-6.2246094-14.7134094-15.3027039v-21.4316101h-6.4882965v-11.4784851h6.4882965v-3.875
	c0-6.3868103,2.6327972-13.9042969,13.5868835-13.9042969v17.7792969h17.8921204h4.0117798l9.1801147,24.8496094
	l9.894104-24.8496094h7.0272827l9.8959961,24.8592834l9.2637024-24.8592834h13.5390015l-17.7718811,47.5390015h-7.0288086
	l-11.3725891-26.9902039l-11.4521179,26.9902039h-6.9423828L272.9940796,404.4931946L272.9940796,404.4931946z
	 M342.6719055,440.6669922v-47.5390015h13.5023804v47.5390015H342.6719055L342.6719055,440.6669922z M436.7987976,421.1200867
	c1.5957031,5.3536072,6.1972961,8.4042969,11.9082031,8.4042969c4.2050781,0,8.5507812-1.8320007,11.0722961-5.2792969
	l0.5625-0.7695007l8.8808899,7.3847961l-0.5,0.679718c-4.9258118,6.6991882-13.2442017,9.8006897-21.3633118,9.8006897
	c-13.9784851,0-24.3183899-10.593689-24.3183899-24.4862976c0-13.9237976,10.2871094-24.5703125,24.3183899-24.5703125
	c14.9648132,0,23.1367188,11.0527039,23.1367188,25.3280945c0,0.8731079-0.0820007,1.7442017-0.0820007,2.6114197v0.8963928
	H436.7987976L436.7987976,421.1200867z M487.5976868,397.944397c3.5155945-3.7090149,8.1953125-5.5977173,13.5018921-5.6602173
	c1.031311-0.0116882,2.2090149,0.2051086,3.1817017,0.5586243l0.5877991,0.2147827v14.4707031l-1.0838928-0.2441101
	c-1.6875-0.3612976-3.7460938-0.6542969-5.4570923-0.6542969c-6.8905945,0-10.7304077,4.414093-10.7304077,11.0664062v22.9707031
	h-13.5859985v-47.5390015h13.5859985V397.944397L487.5976868,397.944397z M436.8632812,411.8310852h20.5332031
	c-0.7655945-5.4159851-4.1659851-8.4042969-10.0371094-8.4042969
	C442.125,403.4267883,438.2090149,407.0185852,436.8632812,411.8310852L436.8632812,411.8310852z"/>
<path class="st1" d="M349.0043945,365.577179c-5.598114,0-10.0288086,4.7051086-10.0288086,10.25
	c0,5.5605164,4.4447937,10.1386108,10.0288086,10.1386108c5.5986023,0,9.9188843-4.5957031,9.9188843-10.1386108
	C358.9232788,370.3056946,354.6260071,365.577179,349.0043945,365.577179L349.0043945,365.577179z"/>
<path class="st1" d="M565.9160156,418.6747742l0.1659546,0.7520142c1.078186,4.8945007,4.6660156,8.1914062,9.7774048,8.1914062
	c5.6875,0,9.0488281-4.2910156,9.0488281-9.7578125v-41.4198914h14.6073608v37.7967834
	c0,15.1387024-6.8964844,27.1035156-23.3007812,27.1035156c-9.5487671,0-17.8807983-5.875-21.3125-14.3496094h-0.2850952
	l-4.4863281,0.1192017v13.523407h-14.1660767v-13.523407h-29.4002991l0.0039062-12.9472961l32.4667664-37.7225952h11.0957031
	v38.1835022c5.2617188,0,10.5234375,0,15.7851562,0V418.6747742L565.9160156,418.6747742z M522.4257812,414.6239929h13.5390015
	v-15.710907L522.4257812,414.6239929L522.4257812,414.6239929z"/>
</svg>
